<svg width="17" height="20" viewBox="0 0 17 20" fill="none" xmlns="http://www.w3.org/2000/svg">
<path fill-rule="evenodd" clip-rule="evenodd" d="M8.42105 2.10514C6.67699 2.10514 5.26316 3.51898 5.26316 5.26304C5.26316 7.00709 6.67699 8.42093 8.42105 8.42093C10.1651 8.42093 11.5789 7.00709 11.5789 5.26304C11.5789 3.51898 10.1651 2.10514 8.42105 2.10514ZM3.1579 5.26304C3.1579 2.35627 5.51429 -0.00012207 8.42105 -0.00012207C11.3278 -0.00012207 13.6842 2.35627 13.6842 5.26304C13.6842 8.16981 11.3278 10.5262 8.42105 10.5262C5.51429 10.5262 3.1579 8.1698 3.1579 5.26304ZM6.31579 13.6841C3.99039 13.6841 2.10526 15.5692 2.10526 17.8946V18.9472C2.10526 19.5286 1.63398 19.9999 1.05263 19.9999C0.471279 19.9999 0 19.5286 0 18.9472V17.8946C0 14.4065 2.82768 11.5788 6.31579 11.5788H10.5263C14.0144 11.5788 16.8421 14.4065 16.8421 17.8946V18.9472C16.8421 19.5286 16.3708 19.9999 15.7895 19.9999C15.2081 19.9999 14.7368 19.5286 14.7368 18.9472V17.8946C14.7368 15.5692 12.8517 13.6841 10.5263 13.6841H6.31579Z" fill="#1C1D1E"/>
</svg>
