<svg width="20" height="20" viewBox="0 0 20 20" fill="none" xmlns="http://www.w3.org/2000/svg">
<path fill-rule="evenodd" clip-rule="evenodd" d="M12.3124 0.684359C12.3593 0.262126 12.7396 -0.0421363 13.1618 0.00477114C14.9307 0.201279 16.5001 1.05488 17.723 2.27629C18.9475 3.49923 19.7966 5.07045 19.9951 6.83718C20.0426 7.25935 19.7388 7.64006 19.3166 7.6875C18.8944 7.73495 18.5137 7.43117 18.4663 7.009C18.3118 5.6346 17.6479 4.37557 16.6359 3.36482C15.6223 2.35255 14.3646 1.68631 12.992 1.53381C12.5697 1.48691 12.2655 1.10659 12.3124 0.684359ZM6.13628 1.80103C5.93629 1.62938 5.68032 1.53597 5.41607 1.53857C5.41355 1.5386 5.41103 1.53861 5.40851 1.53861H2.62417C2.01013 1.53938 1.48726 2.10791 1.54264 2.71959C1.54475 2.74286 1.5458 2.76621 1.54578 2.78956C1.53887 11.5621 8.37562 18.4611 17.2059 18.4542C17.2292 18.4542 17.2525 18.4552 17.2757 18.4573C17.8949 18.5132 18.4633 17.9847 18.4609 17.3737L18.4609 17.3706V14.5914C18.4609 14.588 18.4609 14.5845 18.4609 14.581C18.461 14.5781 18.461 14.5752 18.4611 14.5723C18.4677 14.307 18.3764 14.0483 18.2042 13.8455C18.0977 13.72 17.875 13.5543 17.5156 13.382C17.1689 13.2158 16.7486 13.0688 16.3061 12.9539C15.3845 12.7144 14.5316 12.6546 14.1448 12.737C13.9089 12.7872 13.66 12.942 13.3593 13.2252C13.212 13.3638 13.0677 13.5182 12.9124 13.6875C12.8911 13.7107 12.8694 13.7344 12.8474 13.7585C12.7159 13.9023 12.5732 14.0584 12.4311 14.2002C12.1864 14.4445 11.8087 14.4954 11.508 14.3248C9.06376 12.9376 7.03985 10.9178 5.64982 8.47802C5.47814 8.17669 5.52933 7.79773 5.77481 7.55275C5.91692 7.41094 6.0733 7.26849 6.21741 7.13723C6.2415 7.11528 6.26525 7.09365 6.28853 7.07239C6.45816 6.91746 6.61282 6.77336 6.75177 6.62641C7.03569 6.32612 7.1903 6.07811 7.2404 5.84367C7.32251 5.4594 7.26319 4.6124 7.02475 3.69524C6.91032 3.25506 6.76404 2.83652 6.59862 2.49075C6.42724 2.13252 6.26201 1.90895 6.13628 1.80103ZM5.40505 0.000160025C6.0403 -0.00509612 6.65617 0.219838 7.13827 0.633625C7.49808 0.942449 7.77509 1.38506 7.98643 1.82682C8.20373 2.28104 8.38065 2.79632 8.51371 3.30815C8.77026 4.295 8.90308 5.4248 8.74488 6.16515C8.60736 6.80873 8.22562 7.30688 7.86965 7.68336C7.68865 7.8748 7.49749 8.05175 7.32606 8.20833C7.31626 8.21728 7.30654 8.22615 7.2969 8.23494C8.42608 10.0325 9.94863 11.5518 11.7503 12.6785C11.7596 12.6684 11.769 12.6581 11.7785 12.6477C11.9354 12.4766 12.1127 12.2858 12.3046 12.1052C12.6819 11.7498 13.1807 11.3693 13.8245 11.2322C14.5664 11.0743 15.7013 11.2072 16.693 11.4649C17.2072 11.5984 17.7248 11.7762 18.1807 11.9947C18.6239 12.2072 19.0684 12.4863 19.377 12.8498L19.377 12.8499C19.7913 13.3379 20.0127 13.9604 19.9993 14.6002V17.369C20.0045 18.8698 18.6848 20.1068 17.1749 19.9926C7.51603 19.9834 0.0166035 12.4134 0.00733198 2.82068C-0.106823 1.31436 1.12758 0.00156253 2.62305 0.000160378L5.40505 0.000160025ZM11.8091 4.21172C11.8904 3.79475 12.2944 3.52267 12.7114 3.60402C13.576 3.77269 14.4797 4.16115 15.1593 4.84071C15.8389 5.52028 16.2273 6.42406 16.396 7.28863C16.4773 7.7056 16.2052 8.10956 15.7883 8.1909C15.3713 8.27224 14.9673 8.00016 14.886 7.58319C14.7597 6.93564 14.4813 6.33839 14.0714 5.92858C13.6616 5.51874 13.0644 5.24033 12.4168 5.114C11.9998 5.03265 11.7278 4.62869 11.8091 4.21172Z" fill="#1C1D1E"/>
</svg>
